<svg width="125" height="149" viewBox="0 0 125 149" fill="none" xmlns="http://www.w3.org/2000/svg">
<path d="M87.4573 31.2731L79.7735 34.0184L76.4761 23.9772C70.4186 5.46151 51.1122 -4.37077 33.3723 1.88071C15.6324 8.13219 6.18803 28.4383 12.2456 46.954L15.5429 56.9952L7.82925 59.7554C4.8879 60.8962 2.49932 63.1267 1.16001 65.9832C-0.179308 68.8396 -0.366341 72.1024 0.637796 75.0932L22.0181 140.428C22.462 141.908 23.1988 143.285 24.185 144.475C25.1712 145.665 26.3865 146.645 27.7588 147.356C29.1311 148.067 30.6324 148.495 32.1734 148.615C33.7144 148.734 35.2637 148.543 36.7293 148.052L116.357 119.57C119.338 118.431 121.76 116.181 123.115 113.292C124.47 110.404 124.652 107.103 123.623 104.083L102.228 38.748C101.773 37.2716 101.025 35.9021 100.028 34.7211C99.0323 33.5401 97.8084 32.5719 96.4298 31.8743C95.0513 31.1767 93.5463 30.7639 92.0047 30.6606C90.4632 30.5573 88.9166 30.7656 87.4573 31.2731ZM26.7627 41.7171C25.1294 36.9027 25.4226 31.6431 27.5809 27.0401C29.7391 22.4371 33.595 18.8479 38.3406 17.0245C40.684 16.2228 43.1648 15.9012 45.6351 16.0792C48.1054 16.2571 50.5146 16.9308 52.7188 18.0601C54.9231 19.1893 56.8773 20.7511 58.4649 22.6521C60.0524 24.5531 61.2408 26.7544 61.959 29.1246L65.2414 39.1658L30.0451 51.7583L26.7627 41.7171ZM71.5227 99.6962L76.9834 116.377C77.0837 116.711 77.0514 117.071 76.893 117.383C76.7346 117.694 76.4624 117.932 76.133 118.048L68.479 120.778C68.1744 120.863 67.8489 120.826 67.5708 120.676C67.2927 120.526 67.0835 120.274 66.987 119.972L61.4816 103.367C58.4458 103.201 55.5331 102.112 53.1333 100.246C50.7335 98.3793 48.9611 95.8242 48.0536 92.9225C46.7559 89.0865 46.9926 84.8972 48.7141 81.2318C50.4356 77.5663 53.5084 74.709 57.289 73.258C59.1557 72.6202 61.1317 72.3648 63.0992 72.5069C65.0667 72.649 66.9855 73.1857 68.7412 74.0851C70.4968 74.9846 72.0534 76.2282 73.3183 77.742C74.5831 79.2558 75.5302 81.0087 76.1031 82.8963C77.0631 85.8438 77.1425 89.0073 76.3316 91.9993C75.5207 94.9912 73.8546 97.6816 71.5376 99.741L71.5227 99.6962Z" fill="white"/>
<path d="M79.4304 33.8394C79.4304 34.0482 65.1818 39.4045 47.4568 45.7754C29.7319 52.1462 15.2744 57.2638 15.1998 57.1145C15.1252 56.9654 29.4484 51.5643 47.1882 45.1786C64.9281 38.7928 79.3558 33.6454 79.4304 33.8394Z" fill="#263238"/>
<path d="M96.3496 36.5847C96.4154 36.7141 96.4703 36.8489 96.5137 36.9875C96.6331 37.2859 96.7674 37.6738 96.9464 38.1513C97.3343 39.2404 97.8715 40.7473 98.5429 42.6273L104.272 59.3078C106.659 66.3799 109.509 74.7649 112.672 84.075C114.164 88.745 115.925 93.6089 117.566 98.7265C118.444 101.364 118.824 104.141 118.685 106.918C118.558 108.361 118.148 109.766 117.476 111.05C116.759 112.331 115.802 113.46 114.656 114.378C112.351 116.06 109.793 117.365 107.077 118.242L99.3933 121.002L84.8463 126.209L60.2134 134.982L43.5776 140.831L39.1016 142.323L37.908 142.711C37.7803 142.767 37.6442 142.803 37.5051 142.815C37.5051 142.815 37.6245 142.815 37.8781 142.636L39.0419 142.173L43.5179 140.488L60.0642 134.4L84.6523 125.448L99.1695 120.196L106.853 117.421C109.492 116.58 111.976 115.315 114.209 113.676C115.275 112.825 116.166 111.777 116.835 110.588C117.467 109.4 117.847 108.095 117.954 106.753C118.091 104.079 117.727 101.402 116.88 98.8607C115.268 93.7879 113.567 88.8793 112.031 84.2093C108.927 74.8843 106.063 66.4694 103.795 59.3973C101.527 52.3253 99.6171 46.6407 98.3041 42.6422C97.6775 40.6877 97.2 39.1658 96.8121 38.0617L96.4541 36.8681C96.409 36.7777 96.374 36.6827 96.3496 36.5847Z" fill="#263238"/>
<path d="M54.3348 16.0099C54.3348 16.0099 53.5441 15.622 52.0819 15.0252C49.9977 14.2244 47.7935 13.7805 45.5619 13.7123C42.254 13.5988 38.9622 14.2205 35.9235 15.5325C32.2284 17.1662 29.0689 19.8087 26.8075 23.1566C24.5309 26.495 23.3094 30.4402 23.3012 34.4809C23.3323 37.7927 23.8347 41.0833 24.7932 44.2535C25.5691 46.9689 26.3747 49.1323 26.9119 50.6393C27.2287 51.4047 27.4881 52.1926 27.6877 52.9966C27.2639 52.281 26.9092 51.5266 26.6284 50.7437C26.0167 49.2517 25.1364 47.1331 24.271 44.4027C23.2088 41.1992 22.6305 37.8551 22.5552 34.4809C22.5155 30.2875 23.7655 26.1832 26.136 22.7239C28.4763 19.2537 31.7651 16.5295 35.6102 14.876C38.7437 13.5568 42.1382 12.9749 45.532 13.1751C47.8121 13.2913 50.0519 13.8222 52.1416 14.7417C52.7003 14.9995 53.2389 15.2987 53.753 15.6369C53.9652 15.7302 54.1615 15.856 54.3348 16.0099Z" fill="#263238"/>
<path d="M55.0212 74.3919C55.2594 74.2476 55.5088 74.1229 55.7672 74.0189C56.514 73.6819 57.2876 73.4074 58.0798 73.1983C59.3373 72.8271 60.6345 72.6068 61.9441 72.5418C63.7254 72.4461 65.5074 72.7152 67.181 73.3326C71.0005 74.6754 74.5067 78.5695 76.2374 83.7766C77.0674 86.571 77.0674 89.5463 76.2374 92.3407C75.3171 95.3736 73.6676 98.1347 71.4332 100.383L71.5227 99.9797C73.5071 105.426 75.6705 111.334 77.9085 117.496L78.0428 117.869L77.6698 118.003L74.2531 119.137L66.7931 121.629L66.4201 121.748L66.3007 121.375C64.2567 115.198 62.0187 109.439 60.3327 103.784L60.6609 104.038C57.7442 103.796 54.9631 102.701 52.6638 100.89C50.5836 99.2876 48.8779 97.251 47.6656 94.9218C46.5718 92.8563 46.0272 90.5444 46.0841 88.2078C46.1532 85.8198 46.7494 83.4766 47.8302 81.346C48.911 79.2154 50.4495 77.3502 52.3356 75.8839C53.112 75.2537 53.9832 74.7501 54.9168 74.3919C54.074 74.892 53.2573 75.4347 52.4699 76.0182C50.398 77.7711 48.8107 80.0263 47.8596 82.5681C47.0433 84.4848 46.6615 86.5584 46.7415 88.6401C46.8214 90.7219 47.3612 92.7601 48.3221 94.6085C49.5141 96.8492 51.1788 98.804 53.2009 100.338C55.3943 102.059 58.0459 103.097 60.8251 103.322H61.0787L61.1533 103.546C62.7945 109.096 65.0474 114.9 67.1213 121.106L66.6289 120.868L74.0889 118.376L77.4907 117.227L77.252 117.735C75.0289 111.573 72.8805 105.649 70.911 100.204V99.9797L71.0901 99.8007C73.2591 97.646 74.8764 95 75.8048 92.087C76.5961 89.414 76.5961 86.569 75.8048 83.8959C74.1785 78.8828 70.8215 75.0782 67.181 73.7354C65.5696 73.1141 63.8492 72.8248 62.1231 72.885C60.8343 72.9145 59.553 73.0897 58.3036 73.4072C56.0805 73.9592 55.0361 74.4665 55.0212 74.3919Z" fill="#263238"/>
</svg>