<svg width="124" height="214" viewBox="0 0 124 214" fill="none" xmlns="http://www.w3.org/2000/svg">
<path d="M27.4602 158.952C4.40885 142.853 -0.813146 112.969 0.0969744 86.0977C0.246174 81.6217 -0.246167 76.8771 1.88739 72.9532C4.02095 69.0292 9.00422 66.3287 13.0177 68.2086C16.3449 69.7752 17.7921 73.6544 19.6571 76.8622C22.1456 81.1347 25.7923 84.6159 30.1757 86.9034C33.0254 88.3954 36.5615 89.2906 39.3814 87.7389C43.2606 85.6053 43.7081 80.2789 43.6783 75.8029C43.6783 67.4775 43.6286 59.1621 43.5291 50.8567C43.261 46.3969 43.7144 41.923 44.8719 37.6077C46.2595 33.3704 49.3479 29.4464 53.5702 28.2528C57.7926 27.0592 63.0594 29.521 64.0142 33.8777C64.1786 35.7229 64.2234 37.5769 64.1485 39.4279C64.2679 41.2929 65.1333 43.337 66.8789 43.9039C68.6245 44.4709 70.4448 43.1728 71.7876 41.8599C76.383 37.3839 79.5161 31.5502 82.4255 25.791C85.3349 20.0319 88.1846 14.1087 92.3622 9.19999C96.5398 4.29131 102.314 0.397198 108.774 0.024198C115.235 -0.348802 121.964 3.61992 123.575 9.88632C125.186 16.1527 121.531 22.5534 117.607 27.6411C111.686 35.1932 104.706 41.8514 96.883 47.4101C95.356 48.2439 94.1373 49.5463 93.4067 51.1252C92.4369 54.1092 95.2567 57.0932 98.196 58.0332C101.523 59.1372 105.134 58.7941 108.64 59.2118C112.146 59.6296 115.876 61.1514 117.204 64.4338C119.024 68.9993 115.205 73.7738 111.46 76.907C103.94 83.1734 95.4015 88.1038 86.2152 91.4838C82.9328 92.6774 79.4863 93.7367 76.8305 96.0344C74.1748 98.3321 72.5933 102.346 74.1897 105.494C75.7861 108.642 79.8891 109.641 83.3357 109C86.7822 108.358 89.8408 106.508 93.1232 105.27C99.2553 102.957 107.163 103.375 111.027 108.672C112.224 110.496 112.982 112.573 113.241 114.74C113.5 116.907 113.253 119.104 112.519 121.16C111.026 125.25 108.728 128.999 105.76 132.186C95.9885 143.861 83.2916 152.732 68.9677 157.893C54.7489 162.816 41.5746 164.159 27.4454 158.982" fill="white"/>
<path d="M117.01 3.70941C117.01 3.70941 116.876 3.85861 116.577 4.12717L115.25 5.30584C114.086 6.35024 112.37 7.87209 110.207 9.88629C104.073 15.5815 98.3771 21.731 93.168 28.2827C89.8408 32.4155 86.3943 37.1004 82.724 42.1881C79.0536 47.2758 75.264 52.7664 71.5041 58.6001C67.4957 64.7519 63.8248 71.1172 60.5081 77.6679C58.7773 81.0845 57.2555 84.6504 55.6889 88.2909L51.0637 99.4063C44.967 113.407 39.6572 127.738 35.159 142.331C31.5357 154.271 29.0381 166.524 27.699 178.93C26.8313 187.302 26.6915 195.734 27.2812 204.13C27.52 207.114 27.7438 209.397 27.9527 210.948C28.0422 211.694 28.1018 212.291 28.1615 212.724V213.335C28.0973 213.141 28.0523 212.941 28.0272 212.739C27.9526 212.306 27.8631 211.724 27.7438 210.978C27.4752 209.486 27.1917 207.129 26.9232 204.145C26.2033 195.733 26.2533 187.273 27.0724 178.87C28.3284 166.412 30.7714 154.101 34.3682 142.107C38.8287 127.473 44.124 113.106 50.2282 99.078L54.9728 88.0074C56.5394 84.3819 58.0761 80.7861 59.8218 77.3545C63.1616 70.7841 66.8624 64.4035 70.9073 58.242C74.7268 52.274 78.5762 46.873 82.2017 41.83C85.8273 36.7871 89.3335 32.0723 92.6458 27.9544C97.9079 21.4201 103.68 15.3136 109.908 9.69232C112.116 7.70796 113.877 6.21596 115.071 5.21632L116.458 4.09732C116.628 3.94923 116.813 3.81923 117.01 3.70941Z" fill="#263238"/>
<path d="M60.0157 77.3247C59.8052 76.71 59.6602 76.0749 59.583 75.4299C59.3443 74.1915 59.0757 72.4458 58.7624 70.178C58.1209 65.702 57.4644 59.5699 56.7632 52.7813C56.0619 45.9927 55.2712 39.8457 54.6147 35.4144C54.2715 33.2063 53.9731 31.4308 53.7642 30.1924C53.6012 29.5586 53.5161 28.9072 53.5106 28.2528C53.7675 28.8505 53.9528 29.4766 54.0626 30.1178C54.3909 31.3412 54.7639 33.1018 55.1816 35.3249C56.0321 39.8009 56.8676 45.8882 57.5688 52.6917C58.27 59.4953 58.8669 65.4633 59.3294 70.1034C59.5532 72.1922 59.7472 73.9677 59.8964 75.3851C60.0123 76.0247 60.0523 76.6757 60.0157 77.3247Z" fill="#263238"/>
<path d="M117.428 66.6122C116.702 66.7702 115.963 66.8601 115.22 66.8807C113.728 67.015 111.609 67.194 108.983 67.4924C103.731 68.0594 96.51 69.1038 88.5875 70.5958C80.665 72.0878 73.5482 73.7737 68.4306 75.0718C65.8793 75.7283 63.8203 76.3251 62.4626 76.7279C61.7377 76.9855 60.9875 77.1655 60.2246 77.265C60.9141 76.9183 61.6331 76.6337 62.373 76.4146C63.7755 75.9223 65.8046 75.2359 68.341 74.5048C73.4288 73.0128 80.5456 71.2373 88.498 69.7155C95.2344 68.4274 102.032 67.4813 108.864 66.8807C111.505 66.6569 113.638 66.5674 115.13 66.5375C115.897 66.4854 116.666 66.5104 117.428 66.6122Z" fill="#263238"/>
<path d="M35.0993 141.063C34.9402 140.847 34.8098 140.611 34.7114 140.362L33.7267 138.288C32.8762 136.482 31.7274 133.812 30.3547 130.544C27.5796 123.98 24.0436 114.789 20.2837 104.584C16.5239 94.3782 13.0624 85.1875 10.4365 78.5481C9.1534 75.3254 8.09411 72.6846 7.30335 70.7151L6.46779 68.5816C6.35198 68.3356 6.27165 68.0743 6.22911 67.8057C6.38818 68.0217 6.51854 68.2574 6.617 68.507L7.60173 70.5809C8.43725 72.3862 9.60102 75.0569 10.9737 78.3244C13.7488 84.8892 17.2848 94.0799 21.0447 104.285C24.8045 114.49 28.2659 123.681 30.8919 130.321C32.175 133.543 33.2343 136.184 34.0101 138.154C34.3533 139.004 34.6368 139.646 34.8606 140.287C34.9764 140.533 35.0567 140.794 35.0993 141.063Z" fill="#263238"/>
<path d="M111.311 116.49C111.072 116.627 110.816 116.732 110.55 116.803L108.342 117.549L100.18 120.19C93.2873 122.428 83.7684 125.621 73.3244 129.142C62.8804 132.663 53.3166 135.796 46.3788 137.885C42.9174 138.944 40.0975 139.75 38.143 140.287L35.89 140.869C35.6281 140.952 35.358 141.007 35.0844 141.033C35.3233 140.896 35.5791 140.791 35.8453 140.72L38.0535 139.974L46.2147 137.333C53.1077 135.095 62.6267 131.902 73.0707 128.381C83.5147 124.86 93.0635 121.727 100.001 119.638C103.478 118.579 106.283 117.773 108.252 117.236L110.505 116.654C110.767 116.571 111.037 116.516 111.311 116.49Z" fill="#263238"/>
</svg>
