<svg width="77" height="88" viewBox="0 0 77 88" fill="none" xmlns="http://www.w3.org/2000/svg">
<path d="M38.3819 0.000102446H37.6806L35.6515 0.149312C34.5534 0.215285 33.4614 0.359895 32.384 0.582004C31.6862 0.679994 30.9939 0.814442 30.3101 0.984828L27.9975 1.6264C24.0614 2.834 20.3476 4.67323 17.0015 7.07219C12.5805 10.2812 8.88896 14.3897 6.16958 19.1276C4.57125 21.8587 3.2993 24.7681 2.3799 27.7961C1.41382 31.087 0.857584 34.4846 0.723791 37.9118C0.634872 39.7122 0.664773 41.5165 0.813307 43.3129C0.813307 44.223 1.06695 45.1331 1.18631 46.0582C1.2867 46.9906 1.46132 47.9136 1.70851 48.8183C3.05014 54.8054 5.77237 60.396 9.65803 65.1443C13.5437 69.8926 18.4853 73.6671 24.0885 76.1667C28.1439 77.9166 32.4906 78.8932 36.9048 79.0463C41.4639 79.297 46.0276 78.6429 50.3328 77.1216L51.6457 76.6292H51.8248L51.974 76.7188L70.7881 86.2676L70.2361 86.745C68.2219 80.5084 66.2823 74.4658 64.4024 68.6619V68.4382L64.5665 68.274C69.1305 63.6771 72.5186 58.0473 74.4435 51.862C76.1869 46.2073 76.6957 40.2441 75.9355 34.3758C75.2593 29.1605 73.5824 24.1248 70.997 19.5453C68.7684 15.6114 65.8934 12.0807 62.4926 9.10131C59.6868 6.74308 56.5814 4.76643 53.2571 3.22283C50.7418 2.13797 48.1221 1.31309 45.439 0.761037L42.455 0.268674L40.2916 0.104553L38.9787 0.015037H38.5311C38.6798 -0.00146922 38.8299 -0.00146922 38.9787 0.015037H40.3065L42.4699 0.104553L45.4539 0.537223C48.1705 1.04886 50.8258 1.84399 53.3765 2.90952C56.7579 4.43477 59.9193 6.40688 62.7761 8.77307C66.2394 11.7393 69.1753 15.2705 71.4595 19.2171C74.1183 23.8458 75.8467 28.9497 76.5472 34.2415C77.3706 40.2005 76.8972 46.267 75.1597 52.0262C73.2222 58.34 69.7817 64.0896 65.1334 68.7813L65.223 68.3934C67.1029 74.1973 69.0574 80.2399 71.0865 86.4615L71.37 87.3716L70.5195 86.9389L51.7054 77.4051H52.0337L50.6909 77.8974C46.3028 79.4415 41.6547 80.1106 37.0092 79.8669C32.4999 79.6952 28.0623 78.6832 23.9244 76.8829C16.0313 73.5025 9.46425 67.6273 5.22963 60.1576C3.28094 56.7077 1.85782 52.9865 1.00726 49.1168C0.774344 48.1887 0.599936 47.2468 0.485066 46.2969C0.365706 45.3569 0.171749 44.4319 0.126989 43.5068C-0.276809 38.1981 0.284288 32.8601 1.78311 27.7513C2.7254 24.6817 4.0328 21.7363 5.67723 18.9783C8.46147 14.1974 12.2299 10.0628 16.7329 6.8484C20.1342 4.4433 23.9103 2.61823 27.908 1.44734L30.2505 0.850553C30.9399 0.690634 31.6371 0.566138 32.3393 0.477553C33.4279 0.275979 34.5301 0.156276 35.6366 0.119465L37.6806 0.0448834C37.913 0.01358 38.1474 -0.00139771 38.3819 0.000102446Z" fill="#2098F2"/>
<path d="M46.8863 34.7936H44.1261L38.1581 26.4085V20.903C38.1581 20.903 33.8909 20.6345 34.3982 27.8408C34.9055 35.0472 34.3982 33.212 34.3982 33.212C34.3982 33.212 25.3418 33.212 24.5958 34.0326C23.8498 34.8532 23.805 43.5964 23.7006 48.4752C23.6434 49.6513 23.9809 50.8128 24.6594 51.7751C25.3379 52.7375 26.3185 53.4455 27.4455 53.7867C27.7614 53.8742 28.0875 53.9194 28.4153 53.921C30.6831 53.921 42.2163 52.0858 42.2163 52.0858H46.9758L46.8863 34.7936Z" fill="#2098F2"/>
<path d="M54.779 33.3165L53.0781 52.1753H48.3634V33.7044L54.779 33.3165Z" fill="#2098F2"/>
</svg>
